<svg xmlns="http://www.w3.org/2000/svg" viewBox="0 0 49 49"><path d="M24.5 0C10.97 0 0 10.97 0 24.5S10.97 49 24.5 49 49 38.03 49 24.5 38.03 0 24.5 0zm0 47C12.093 47 2 36.906 2 24.5S12.093 2 24.5 2 47 12.093 47 24.5 36.906 47 24.5 47zm10.3-27.658c.86-1.7 1.88-4.987.433-9.482a1 1 0 0 0-1.825-.182c-1.27 2.268-4.038 5.927-6.047 6.094-.03.002-.054.02-.083.024-1.5-.287-2.7-.296-2.8-.296s-1.3.01-2.8.292c-.025-.004-.045-.02-.07-.02-2.004-.167-4.773-3.827-6.048-6.095-.195-.346-.577-.543-.972-.505a1 1 0 0 0-.852.688c-1.448 4.494-.427 7.77.433 9.482-1.744.22-3.954.777-4.757 2.188-.388.682-.38 1.464.024 2.2.514.94 1.4 1.245 2.334 1.245.816 0 1.668-.233 2.35-.482-.004.54.026 1.08.13 1.612.288 1.496 1.13 3.636 1.748 5.197l.5 1.324c-.235.614-.672 1.812-.766 2.484-.112.8.114 2.147 1.12 3.306 1.443 1.66 4.006 2.5 7.62 2.5s6.176-.84 7.62-2.5c1.007-1.158 1.233-2.505 1.12-3.306-.094-.673-.53-1.87-.767-2.484l.5-1.32c.617-1.563 1.462-3.704 1.75-5.2.103-.535.135-1.073.135-1.6.68.248 1.528.48 2.342.48.936 0 1.82-.306 2.334-1.245.404-.737.412-1.52.024-2.2-.8-1.4-3-1.967-4.755-2.187zm-.953-6.634c.428 3.06-.477 5.157-1.03 6.112-.246-.303-.512-.595-.798-.872-.544-.526-1.2-.934-1.9-1.258 1.483-1.05 2.8-2.673 3.72-3.982zM15.14 12.7c.916 1.304 2.23 2.92 3.706 3.97-.7.33-1.36.744-1.892 1.283a10.34 10.34 0 0 0-.771.872c-.55-.943-1.468-3.054-1.043-6.125zM11.2 22.77c-.1-.163-.063-.2-.04-.25.223-.4 1.387-1.006 3.6-1.233l-.302.878c-1.265.673-2.998 1.1-3.267.605zm21.558 2.96c-.252 1.313-1.058 3.354-1.646 4.844l-.683 1.877-.066.302.114.287c.283.7.7 1.908.772 2.35.001.01.096.858-.65 1.716-.72.826-2.363 1.812-6.1 1.812s-5.4-.986-6.1-1.812c-.746-.857-.65-1.707-.65-1.716.062-.44.5-1.64.772-2.352l.114-.286-.066-.302c-.072-.326-.284-.87-.683-1.88l-1.645-4.84c-.422-2.198.38-4.575 2.145-6.358 1.514-1.53 4.914-1.87 6.114-1.872 1.166 0 4.54.34 6.14 1.886 2.08 2.014 2.465 4.597 2.13 6.344zm5.02-2.96c-.263.48-1.974.07-3.238-.592l-.297-.888c2.198.23 3.354.84 3.575 1.23.024.04.05.087-.04.25z" fill="#323232"/></svg>
