<svg xmlns="http://www.w3.org/2000/svg" viewBox="0 0 154 64"><path d="M59.292 42.755c-.833-.25-2.153.373-2.153.373s-3.027 2.513-17.84-.378c-10.908-2.13-16.583-1.917-16.583-1.917s1.833-12.5 1.333-16c0 0 0-.917-1.083-.917s-1.75.417-1.75 1 .167 4.417-.25 7.083c0 0-1.417 4.25-6.167 3.917s-5.75-3.75-6.167-6.083-.666-8.833.584-11.5c0 0 7.167.25 11.667-3.583s4.25-7.167 2.083-8.583S15.883 5 12.05 8.5s-5.083 7-5.083 7-5.625-1.208-4.333-7.083C3.982 2.277 12.393 3 12.393 3c1.75.333 1.823.5 2.406-.083S15.8.834 13.05.75 2.05 2.02.466 7.5C-1.22 13.328 1.9 17.497 6.088 18.143c0 0-2.288 10.107.545 15.107s6.94 4.917 8.595 4.917 4.572-.916 5.405-2.25c0 0-.393 3.58-.724 4.88 0 0-6.935-.095-9.1 1.036-3.688 1.917-2.917 6.48-1.5 8.104 1.204 1.38 4.812 2.125 7.417.896 2.705-1.277 4.865-3.74 5.55-7.697 0 0 6.368-.47 12.534 1.364s14.756 3.556 17.34 3.556 8.046-.738 8.327-2.9c.186-1.438-.342-2.162-1.175-2.412zM15.862 9.328s3.28-2.5 4.844-.938c0 0 1.25 1.28.094 2.812-.656.87-2.396 3.6-10.656 4.938-.001.001 2.593-4.562 5.718-6.812zm.265 38.906s-4.53 2.47-5.047-.875c-.333-2.158.9-3.18 1.687-3.57s1.875-.88 6.58-.7c0 0 0 3.328-3.22 5.156zm57.45-23.757l-.002 6.77c-.007.038-.02.075-.02.115-.035.93-.418 1.734-.86 2.537a5.56 5.56 0 0 1-1.18 1.463c-.533.47-.877-.564-1.078-.985-1.4-2.915-.726-6.812-.187-9.862.257-1.454-2.706-1.077-2.936.222-.334 1.888-.87 5.118-.547 7.906-.587.1-1.167.366-1.34.737-.5 1.088-2 4.704-3.833 3.258-1.32-1.046-1.46-3.743-1.6-5.268-.2-2.1.154-4.267.816-6.266-.058.173 1.14-2.823 1.67-1.703.326.7.032 2.64-.608 3.122-1.57 1.182.875 1.67 1.824.956 1.802-1.356 3.05-5.708-.074-6.232-3.464-.58-5.438 2.923-6.163 5.697-.335 1.28-.563 3.074-.504 4.886-.48.832-2.097 3.533-3.047 4.026-1.125.584-1.104-.23-1.062-.75l.813-8.27c.175-2.014-.062-2.77-.5-3.646s-3.994-2.825-7.146.833c-2.183 2.534-2.912 4.927-3.08 7.054l-.7 1.362c-1.5 2.75-3.384 3.9-4.062 2-.594-1.672-.906-3.703-.75-6.188.005-.088 3.5-5 5.062-11.75s1.25-10.062.438-10.625-4.25-1.938-6.312 6.25c-1.523 6.047-2.137 12.5-1.565 17.88-.317.684-.72 1.5-1.23 2.434-1.5 2.75-3.384 3.9-4.062 2-.594-1.672-.906-3.703-.75-6.188.005-.088 3.5-5 5.062-11.75s1.25-10.062.438-10.625-4.25-1.938-6.312 6.25-2.465 17.126-.5 23.125c0 0 1.08 3.375 3.103 3.125 1.67-.207 3.656-1.846 4.83-4.906a21.27 21.27 0 0 0 .487 1.781s1.08 3.375 3.103 3.125c1.376-.17 2.964-1.32 4.14-3.423.7 1.84 2.24 3.34 4.213 2.985 2.667-.48 3.218-1.932 3.218-1.932s-.05 2.383 1.657 2.383c1.525 0 2.73-.9 3.938-3.16l.773-1.48c.356 2.144 1.24 4.055 3.018 4.83 2.976 1.298 5.62-1.172 7.167-3.608.473 1.2 1.24 2.156 2.46 2.616 1.338.505 2.66.013 3.772-.928l-.026 3.52c-.584.001-1.24.143-1.547.415-3.203 2.825-4.598 6.24-4.195 10.52.233 2.48 2.576 3.597 4.725 2.662 3.1-1.35 3.57-6.02 3.83-8.836.625-6.83.14-13.94.14-20.8 0-1.293-2.906-.702-2.906.33zM30.252 13.28c.688-2.656 1.33-3.72 1.954-3.72s.938.72.47 3-1.987 8.626-4.094 12.75c0 0 .983-9.374 1.67-12.03zm8.418 0c.688-2.656 1.33-3.72 1.954-3.72s.938.72.47 3S39.107 21.186 37 25.3c0 0 .984-9.374 1.67-12.03zm12.86 12.427c-.074.58-.46 4.292-.96 6.292s-.953 2.78-2.583 3.438c-1.704.688-2.438-1.418-2.438-1.418-1.146-3.208.396-6.042 1.667-7.92s2.573-2.096 3.312-1.955a1.36 1.36 0 0 1 1.001 1.562zM73.5 43.764c-.038 2.683-.38 5.377-1.58 7.8-.7.146-1.03-.117-1.24-1.237a10.66 10.66 0 0 1 .05-3.25c.24-2.02 1.382-3.736 2.783-5.153l-.014 1.83zM92.3 21.65c-2.54-1.23-4.8-3.3-5.715-6-1.28-3.827 2.928-6.647 6.275-6.474 3.488.18 5.137 3.625 4.967 6.7-.06 1.095-.748 3.557-2.096 2.277-.95-.906-1.37-2.375-1.566-3.632-.2-1.2-3.1-.495-2.898.776.578 3.657 4.527 7.7 7.898 3.863 3.014-3.418 1.656-9.462-2.574-11.233-4.523-1.893-10.135.077-12.53 4.327-2.732 4.85 2.748 9.598 6.63 11.32 6.225 3.338 6.455 14.054-1.818 14.126-3.43.03-6.62-2.438-7.693-5.6-.572-1.688-.28-7.553 2.014-8.003 1.807-.354 1.3-2.04-.453-1.693-3.713.727-5.08 5.515-4.72 8.858.576 5.34 5.578 8.34 10.63 8.295 4.682-.04 8.654-2.93 9.625-7.55.938-4.482-1.912-8.768-5.976-10.36zm18.58 15.882c-2.855-1.552-1.223-7.563-.8-9.875.28-1.492 1.555-3.794-.494-4.296-2.385-.584-5.223 1.687-7.277 3.858.012-2.506.17-5 .553-7.478 3.088-1.576 5.4-3.82 7.182-7.395 1.295-2.604 1.94-7.97-2.46-6.422-3.986 1.403-5.377 6.017-6.62 9.688-.484 1.43-.836 2.894-1.094 4.378-.398.16-.803.312-1.22.44-1.658.512-1.44 1.407.238.9l.8-.263c-.793 5.612-.256 11.5.248 17.02.05.54 2.97-.001 2.898-.777-.227-2.468-.414-4.922-.496-7.364.283-.104.52-.236.633-.387.9-1.175 1.982-2.203 3.08-3.177.3-.26.605-.513.92-.755l.46-.34c.674-.53.8-.543.38-.04-.06.916-.46 1.93-.625 2.832-.55 2.992-2.127 8.9 1.346 10.775.745.403 3.43-.715 2.33-1.313zm-6.486-24.1c.305-.897.715-1.77 1.094-2.636.473-1.082 1.73-4.768 2.645-3.004.73 1.404-.426 3.717-.938 5.067-.83 2.185-2.254 3.95-4.047 5.297a35.07 35.07 0 0 1 1.246-4.724zm17.246 17.095c.006-3.288-.375-7.506-4.303-7.863-4.3-.392-6.006 4.123-6.064 7.5a.6.6 0 0 0 .35.57c-.004 3.15.76 7.26 4.508 7.197 4.18-.068 5.505-3.714 5.5-7.393zm-4.998 5.475c-2.44-.97-2.22-5.203-2.053-7.24a.54.54 0 0 0-.246-.525c.3-2.017 1.082-5.03 2.863-3.506 1.416 1.2 1.445 4.148 1.52 5.835.053 1.144-.105 6.224-2.085 5.436zM153.14 48.58c-1.127-2.886-3.588-3.994-6.293-4.128a12.07 12.07 0 0 0-1.133-2.076c-3.9-5.788-13.2-5.02-19.475-1.948l-.13-2.73c2.533.127 5-.852 6.502-2.997 1.676-2.395 1.434-6.632.777-9.314-.62-2.525-3.088-2.072-4.93-1.234-.656.298-1.28.744-1.865 1.26l.16-2.014c.1-1.542-2.842-1.153-2.94.203-.453 6.196-.297 12.366-.44 18.54-4.27 3.862-5.348 7.5-5.4 12.06-.02 2.27 1.934 3.96 3.982 2.386 2.895-2.224 3.77-6.63 4.172-9.984.178-1.5.197-3 .16-4.528 4.5-2.94 10.635-3.15 15.205-.1.938.626 1.7 1.594 2.262 2.696a18.42 18.42 0 0 0-4.613 1.482c-1.713.825-4.256 2.765-4.13 4.936.098 1.7 1.03 2.638 2.283 2.98a1.26 1.26 0 0 0 .299.084c6.135.995 10.703-2.626 9.828-7.737 2.984 1.625 4.107 5.405 3.043 8.66-2.387 7.304-11.584 8.932-16.95 4.054-.574-.523-3.184.577-2.73.992 7.786 7.076 27.058.53 22.347-11.543zm-29.944-1.775c-.102 1.738-.46 3.55-1.145 5.143a22.06 22.06 0 0 1-.801 1.598s-.26.064-.316-.717c.025-2.858.8-5.577 2.346-7.892l-.084 1.868zm3.13-17.858c.06-.055.1-.1.146-.172.516-.917 1.207-1.728 1.908-2.507.527-.586 1.12-1.138 1.803-1.54.324.162.654 1 .777 2.13.303 2.772.44 10.096-3.945 9.407-.2-.033-.57.043-.947.17v-.04c-.06-2.478.075-4.967.258-7.452zm13.08 23.744c-.016-.003-.037-.001-.055-.003-1.7-.398-1.502-2-1.3-3.086.492-2.524 3.576-3.883 6.117-3.96 1.284 3.567.296 7.87-4.773 7.048z" fill="#fff" /></svg>
