<svg xmlns="http://www.w3.org/2000/svg" viewBox="0 0 49 49"><path d="M24.5 0C10.97 0 0 10.97 0 24.5S10.97 49 24.5 49 49 38.03 49 24.5 38.03 0 24.5 0zm0 47C12.093 47 2 36.906 2 24.5S12.093 2 24.5 2 47 12.093 47 24.5 36.906 47 24.5 47zm0-39.375a8.5 8.5 0 0 0-8.436 7.5H16v16.917h17V15.125h-.063c-.497-4.222-4.082-7.5-8.437-7.5zM31 30.042H18v-9.257c.275.337.705.63 1.542.63 1.292 0 2.125-.713 2.125-1.625v-.875c0-.472.382-.854.854-.854s.854.382.854.854c0 .01-.005.017-.005.025l.005 3.3s-.03 1.833 2.125 1.833c2.1 0 2.125-1.75 2.125-1.75v-2.25h.001c-.001-.747.6-1.35 1.343-1.35s1.344.602 1.344 1.344c0 .03.02.088.02.088a1.11 1.11 0 0 0 .667.894v8.982zm-8 10.083a1.5 1.5 0 1 0 3 0V33h-3v7.125z" fill="#323232"/></svg>
