<svg xmlns="http://www.w3.org/2000/svg" viewBox="0 0 49 49"><path d="M24.5 0C10.97 0 0 10.97 0 24.5S10.97 49 24.5 49 49 38.03 49 24.5 38.03 0 24.5 0zm0 47C12.093 47 2 36.906 2 24.5S12.093 2 24.5 2 47 12.093 47 24.5 36.906 47 24.5 47zm10.307-20.244C34.357 17.263 25.6 8.063 25.22 7.66c-.015-.015-.033-.023-.048-.037a.94.94 0 0 0-.118-.09c-.042-.03-.084-.055-.13-.077-.018-.01-.032-.022-.05-.03-.027-.01-.056-.01-.083-.02a.9.9 0 0 0-.145-.034.97.97 0 0 0-.152-.01c-.045 0-.1.002-.134.008-.055.008-.105.02-.158.038-.025.008-.052.008-.076.018-.018.007-.03.02-.05.03-.047.022-.1.05-.133.08a.95.95 0 0 0-.118.091c-.015.013-.033.02-.046.036-.4.404-9.14 9.608-9.587 19.105-.008.067-.017.133-.01.202a14.7 14.7 0 0 0-.003 1.091c.37 10.256 9.978 12.82 10.075 12.845.082.02.165.03.247.03s.165-.01.247-.03c.097-.024 9.706-2.6 10.074-12.845.013-.363.01-.727-.003-1.1.006-.073-.004-.142-.012-.213zM16.783 23.25c2.22 2.058 5.368 3.52 6.717 4.1v4.552c-2.448-1.196-6.22-3.34-7.302-5.228.07-1.143.28-2.287.585-3.415zm2.024-5.096c1.513 1.688 3.602 2.646 4.693 3.06v3.94c-1.654-.76-4.424-2.216-6.016-4.043.388-1.016.834-2.008 1.323-2.956zm12.7 2.954c-1.6 1.824-4.362 3.283-6.018 4.044v-3.94c1.092-.413 3.183-1.372 4.695-3.062a29.18 29.18 0 0 1 1.323 2.957zm-6.018-2.06V11.04a45.24 45.24 0 0 1 3.651 5.229c-.953 1.374-2.536 2.276-3.65 2.78zm0 12.846V27.34c1.35-.57 4.5-2.034 6.72-4.092.305 1.128.515 2.273.584 3.417-1.083 1.883-4.855 4.03-7.303 5.227zm-2-12.843c-1.113-.5-2.694-1.4-3.65-2.78a45.38 45.38 0 0 1 3.649-5.229v8.008zm-7.117 10.775c2.328 1.983 5.7 3.63 7.117 4.28v4.403c-2.092-.904-6.162-3.33-7.117-8.684zM25.5 38.52v-4.415c1.428-.653 4.792-2.3 7.12-4.284-.95 5.4-5.02 7.813-7.12 8.7z" fill="#323232"/></svg>
