<svg xmlns="http://www.w3.org/2000/svg" viewBox="0 0 49 49"><path d="M24.5 0C10.97 0 0 10.97 0 24.5S10.97 49 24.5 49 49 38.03 49 24.5 38.03 0 24.5 0zm0 47C12.093 47 2 36.906 2 24.5S12.093 2 24.5 2 47 12.093 47 24.5 36.906 47 24.5 47zm4.438-33.875a5.04 5.04 0 0 0-5.031-5.031 5.04 5.04 0 0 0-5.031 5.031v14.64a7.04 7.04 0 0 0-2 4.923c0 3.93 3.196 7.125 7.125 7.125s7.125-3.196 7.125-7.125a7.13 7.13 0 0 0-2.188-5.126V13.125zm.187 19.563c0 2.83-2.295 5.125-5.125 5.125s-5.125-2.295-5.125-5.125c0-1.647.792-3.098 2-4.035V13.125a3.03 3.03 0 1 1 6.062 0v15.372c1.32.928 2.188 2.455 2.188 4.2zM25 29.56V13.2a1 1 0 1 0-2 0v16.37a2.99 2.99 0 0 0-2 2.816 3 3 0 1 0 6 0 2.99 2.99 0 0 0-2-2.816zM31 12h6v2h-6zm0 4h6v2h-6zm0 4h6v2h-6zm0 4h6v2h-6z" fill="#323232"/></svg>
